<svg xmlns="http://www.w3.org/2000/svg" xmlns:xlink="http://www.w3.org/1999/xlink" version="1.1" x="0px" y="0px" viewBox="20 10 60 85" enable-background="new 0 0 100 100" xml:space="preserve"><g><path fill-rule="evenodd" clip-rule="evenodd" d="M50.03,90.463l23.285-27.277l1.85-2.399l1.605-2.57l1.343-2.716   l1.067-2.835l0.782-2.928l0.489-2.99l0.191-3.024l-0.109-3.028l-0.408-3.003l-0.703-2.947l-0.991-2.864l-1.269-2.751l-1.535-2.613   l-1.785-2.448l-2.019-2.259l-2.232-2.049l-2.424-1.818l-2.592-1.57l-2.735-1.305l-2.849-1.03l-2.938-0.742l-2.996-0.448   l-3.026-0.15l-3.026,0.15l-2.996,0.448l-2.937,0.742l-2.85,1.03l-2.735,1.305l-2.592,1.57l-2.424,1.818l-2.232,2.049l-2.019,2.259   l-1.785,2.448l-1.535,2.613l-1.269,2.751l-0.991,2.864l-0.703,2.947l-0.407,3.003l-0.11,3.028l0.191,3.024l0.489,2.99l0.782,2.928   l1.067,2.835l1.343,2.716l1.605,2.57l1.851,2.399L50.03,90.463 M50.03,93.03L25.478,64.268l-1.913-2.475l-1.664-2.647l-1.401-2.795   l-1.123-2.919l-0.835-3.013l-0.54-3.08l-0.24-3.118l0.064-3.126l0.365-3.105l0.665-3.055l0.956-2.977l1.24-2.871l1.513-2.736   l1.77-2.578l2.011-2.395l2.234-2.188l2.435-1.963l2.614-1.717l2.766-1.456l2.895-1.183l2.995-0.896l3.069-0.602l3.112-0.303h3.127   l3.113,0.303l3.068,0.602l2.995,0.896l2.895,1.183l2.766,1.456l2.614,1.717l2.435,1.963l2.234,2.188l2.011,2.395l1.77,2.578   l1.513,2.736l1.24,2.871l0.957,2.977l0.664,3.055l0.365,3.105l0.064,3.126l-0.239,3.118l-0.541,3.08l-0.835,3.013l-1.123,2.919   l-1.4,2.795l-1.665,2.647l-1.913,2.475L50.03,93.03"/><polyline fill-rule="evenodd" clip-rule="evenodd" points="62.261,34.258 47.497,54.226 38.603,45.333 42.507,41.429    46.912,45.834 58.358,30.355 62.261,34.258  "/></g></svg>