<svg xmlns:dc="http://purl.org/dc/elements/1.1/" xmlns:cc="http://creativecommons.org/ns#" xmlns:rdf="http://www.w3.org/1999/02/22-rdf-syntax-ns#" xmlns:svg="http://www.w3.org/2000/svg" xmlns="http://www.w3.org/2000/svg" xmlns:sodipodi="http://sodipodi.sourceforge.net/DTD/sodipodi-0.dtd" xmlns:inkscape="http://www.inkscape.org/namespaces/inkscape" version="1.1" x="0px" y="0px" viewBox="0 0 100 125"><g transform="translate(0,-952.36218)"><path style="text-indent:0;text-transform:none;direction:ltr;block-progression:tb;baseline-shift:baseline;color:#000000;enable-background:accumulate;" d="m 50,958.37117 c -18.7603,0 -34,15.39051 -34,34.28125 0,12.97588 5.73317,19.35788 12.375,25.53128 6.64184,6.1734 14.24218,12.4768 19.75,26.9062 a 2.000005,2.000005 0 0 0 3.71875,0 c 5.50787,-14.4294 13.10817,-20.7328 19.75,-26.9062 C 78.23558,1012.0103 84,1005.6283 84,992.65242 84,973.76235 68.76865,958.37117 50,958.37117 z m 0,22.75 c 6.60566,0 12,5.39431 12,12 0,6.59868 -5.39222,12.00003 -12,12.00003 -6.60079,0 -12,-5.39925 -12,-12.00003 0,-6.60779 5.40133,-12 12,-12 z" fill="#000000" fill-opacity="1" fill-rule="evenodd" stroke="none" marker="none" visibility="visible" display="inline" overflow="visible"/></g></svg>